@startuml
[*] --> CreateAccount
CreateAccount --> Login : account created
Login --> CheckWeather : logged in
CheckWeather --> ValidLocation : location valid
ValidLocation --> ChooseInfo : select info to check
ChooseInfo --> ShowInfo : info selected
ShowInfo --> ViewDetails : view details
ViewDetails --> [*] : logout

hide empty description
@enduml
