@startuml
title UML State Machine Diagram

state "Registration" as Registration {
  [*] --> RegEnterDetails

  state "Enter Details" as RegEnterDetails
  state "Get Member_ID" as GetMemberID
  state "Successful Registration" as SuccessfulRegistration
  state "Re-enter Details" as ReEnterDetails

  RegEnterDetails --> GetMemberID : [Valid]
  RegEnterDetails --> ReEnterDetails : [Invalid]
  ReEnterDetails --> RegEnterDetails
  GetMemberID --> SuccessfulRegistration
}

state "Authentication" as Authentication {
  [*] --> AuthEnterMemberID

  state "Enter Member_ID" as AuthEnterMemberID
  state "Enter Password" as EnterPassword
  state "successful Login" as SuccessfulLogin
  state "Invalid Member_ID or Password" as InvalidCreds

  AuthEnterMemberID --> EnterPassword
  EnterPassword --> SuccessfulLogin : [Valid]
  EnterPassword --> InvalidCreds : [Invalid]
}

state "Search Books" as SearchBooks {
  [*] --> EnterBookDetails

  state "Enter Book Details" as EnterBookDetails
  state "Display Suggestion" as DisplaySuggestion
  state "choose Alternate option" as ChooseAlternate

  EnterBookDetails --> DisplaySuggestion : [Found]
  EnterBookDetails --> ChooseAlternate : [Not Found]
}

state "Get Books" as GetBooksState {
  GetEnterBookID --> GetEnterMemberID

  state "Enter Book_ID" as GetEnterBookID
  state "Enter Member_ID" as GetEnterMemberID
  state "Obtain Books" as ObtainBooks
  state PayFineAmount

  GetEnterMemberID --> ObtainBooks : [Active Member]
  GetEnterMemberID --> PayFineAmount : [Inactive Member]
}

state "Buy Books" as BuyBooks {
  BuyEnterBookID --> DisplayBookAmount

  state "Enter Book_ID" as BuyEnterBookID
  state "Display Book Amount" as DisplayBookAmount
  state "Get Books" as BuyGetBooks
  state BuyNotPaidEnd <<choice>>
    DisplayBookAmount --> BuyGetBooks : [Paid]
    BuyNotPaidEnd --> BuyGetBooks : [Not Paid]
}

state StartJoin
StartJoin --> Registration
StartJoin --> Authentication
StartJoin --> SearchBooks
StartJoin --> GetBooksState
StartJoin --> BuyBooks

SuccessfulRegistration --> AuthEnterMemberID

SuccessfulLogin --> EnterBookDetails
SuccessfulLogin --> GetEnterBookID
SuccessfulLogin --> BuyEnterBookID

ObtainBooks --> [*]
BuyGetBooks --> [*]
@enduml
