@startuml
title UML State Machine Diagram (Digidoclocker)

[*] --> LoggedIn
LoggedIn --> Dashboard
Dashboard --> Settings : open settings
Settings --> Dashboard : back
CitizenUploadDocs : upload documents
CitizenUploadDocs --> CitizenViewDocs : success
CitizenViewDocs --> CitizenUploadDocs : view documents
CitizenLogout : logout

state MemberRegistration {
  [*] --> EnterMemberDetails
  EnterMemberDetails --> CheckMemberDetails : valid details
    CheckMemberDetails --> IssueMemberID : success
      IssueMemberID --> SuccessfulRegistration
  CheckMemberDetails --> ReEnterMemberDetails : invalid details
}

state Authentication {
  [*] --> EnterMemberID
  EnterMemberID --> EnterPassword
  EnterPassword --> SuccessfulLogin : valid credentials
    SuccessfulLogin --> LoggedIn
  EnterPassword --> InvalidCredentials : invalid credentials
}

SuccessfulRegistration --> Authentication
LoggedIn --> MemberIDCheck : active member
  MemberIDCheck --> [*]
LoggedIn --> InactiveMember : inactive member
  InactiveMember --> PayFineAmount
  PayFineAmount --> LoggedIn

CitizenViewDocs --> CitizenEditDocs : edit documents
CitizenEditDocs --> CitizenSaveEdits : save edits
CitizenSaveEdits --> CitizenViewDocs : success

CitizenLogout --> [*]
@enduml
