@startuml

[*] --> AddNewGoods

state "Add New Goods" as AddNewGoods
state "Update Price" as UpdatePrice
state "Remove Goods" as RemoveGoods
state "Identify Expired Goods" as IdentifyExpiredGoods
state "Place Order" as PlaceOrder
state "Generate Invoice" as GenerateInvoice
state "Search Items" as SearchItems
state "Calculate Discount and Tax" as CalculateDiscountTax
state "Generate Receipt" as GenerateReceipt
state "Replace Item or Cancel Receipt" as ReplaceItemCancelReceipt
state "Record Customer Requests" as RecordCustomerRequests
state "View Summary Report" as ViewSummaryReport

AddNewGoods --> UpdatePrice
UpdatePrice --> RemoveGoods
RemoveGoods --> IdentifyExpiredGoods
IdentifyExpiredGoods --> PlaceOrder
PlaceOrder --> GenerateInvoice
GenerateInvoice --> SearchItems
SearchItems --> CalculateDiscountTax
CalculateDiscountTax --> GenerateReceipt
GenerateReceipt --> ReplaceItemCancelReceipt
ReplaceItemCancelReceipt --> RecordCustomerRequests
RecordCustomerRequests --> ViewSummaryReport

AddNewGoods --> AddNewGoods
UpdatePrice --> UpdatePrice
RemoveGoods --> RemoveGoods
IdentifyExpiredGoods --> IdentifyExpiredGoods
PlaceOrder --> PlaceOrder
GenerateInvoice --> GenerateInvoice
SearchItems --> SearchItems
CalculateDiscountTax --> CalculateDiscountTax
GenerateReceipt --> GenerateReceipt
ReplaceItemCancelReceipt --> ReplaceItemCancelReceipt
RecordCustomerRequests --> RecordCustomerRequests
ViewSummaryReport --> ViewSummaryReport

ViewSummaryReport --> [*]

@enduml
