@startuml
[*] --> Registration

state Registration
Registration : entry / Get the Registration Details
Registration : do / Validate the Details
Registration : exit / Valid or Invalid Registration


Registration --> [*] : [Invalid Registration]


Registration --> Login : [Valid Registration]


state Login
Login : entry / Get the Login Details
Login : do / Validate the Login Details
Login : exit / Valid or Invalid Login


Login --> Login : [Invalid Login]


Login --> Choice1 : [Valid Login]


state Choice1 <<choice>>

Choice1 --> CancelCert : [Cancel the Certificate]
Choice1 --> RequestCert : [Applying for Certificates]
Choice1 --> ViewProfile : [Profile Viewing]
Choice1 --> UpdateProfile : [Profile Updation]


state "Cancellation of Certificates" as CancelCert
CancelCert : entry / Certificate is asked for Cancellation
CancelCert : do / Certificate is Canceled
CancelCert : exit / Move to End

CancelCert --> EndMerge

state "Request for Certificates" as RequestCert
RequestCert : entry / Fill the Form and Upload the Details
RequestCert : do / Request for Certificates
RequestCert : exit / Apply for another Certificate or Move to End

RequestCert --> RequestCert : [Apply for another Certificate if needed]

RequestCert --> IssueCert : [Certificates requested]

state "Issuing the Certificates" as IssueCert
IssueCert : entry / Validating Details
IssueCert : do / Issuing the Certificates
IssueCert : exit / Updating the Database

IssueCert --> RequestCert : [Certificate is issued]
RequestCert --> EndMerge : [End]

state "View Profile" as ViewProfile
ViewProfile : entry / View the Profile
ViewProfile : do / Display the Profile
ViewProfile : exit / Exit from Profile Viewing

ViewProfile --> EndMerge : [End]


state "Update the Profile" as UpdateProfile
UpdateProfile : entry / Update the User's Profile
UpdateProfile : do / Citizen Profile is updated
UpdateProfile : exit / Move to End

UpdateProfile --> EndMerge : [End]


state EndMerge <<choice>>

EndMerge --> [*]

@enduml
