@startuml
title UML State Machine Diagram

[*] --> DonorRegistration

state "donor registration" as DonorRegistration
DonorRegistration : entry / enter personal details
DonorRegistration : do / verify details
DonorRegistration : exit / request contact details

state "get contacts" as GetContacts
GetContacts : entry / registered donor
GetContacts : do / receive contact details
GetContacts : exit / donate a device

state "device details" as DeviceDetails
DeviceDetails : entry / gave contacts
DeviceDetails : do / receive details
DeviceDetails : exit / request approval

state "device verification" as DeviceVerification
DeviceVerification : entry / provided device details
DeviceVerification : do / check details
DeviceVerification : exit / acknowledge donor

state Decision <<choice>>

state approved
approved : entry / device verified
approved : do / choose an executive
approved : exit / send details to executive

state rejected
rejected : entry / fails verification
rejected : do / notify donor
rejected : exit / device not accepted

state "picked up" as PickedUp
PickedUp : entry / executive receives details
PickedUp : do / executive picks product
PickedUp : exit / acknowledges status of product

DonorRegistration --> GetContacts
GetContacts --> DeviceDetails
DeviceDetails --> DeviceVerification
DeviceVerification --> Decision

Decision --> approved : [passes verification]
Decision --> rejected : [fails verification]

approved --> PickedUp

PickedUp --> [*]
rejected --> [*]

@enduml