@startuml

State MainArea
State MarketConditions
State MarketReport
State PestControlHelp
State PestControlTechniques
State SoilSuggestions
State WeatherInsights
State LabourAvailability
State UsingService
State LoggedOut

[*] MainArea -->|Login Successful| LoggedIn:MainArea
LoggedIn:MainArea -->|Select Option| MainArea
MainArea -->|Select Market Conditions| MarketConditions
MarketConditions -->|Show Market Conditions| MarketReport
MainArea -->|Select Pest Control Help| PestControlHelp
PestControlHelp -->|Provide Photo| PestControlTechniques
MainArea -->|Provide Soil Information| SoilSuggestions
MainArea -->|Provide Location| WeatherInsights
MainArea -->|Provide Location| LabourAvailability
UsingService -->|Continue Using Service| MainArea
LoggedIn:MainArea -->|Logout| LoggedOut

@enduml
